<?xml version="1.0" encoding="utf-8"?>
<!-- Generator: Adobe Illustrator 15.0.0, SVG Export Plug-In . SVG Version: 6.00 Build 0)  -->
<!DOCTYPE svg PUBLIC "-//W3C//DTD SVG 1.1//EN" "http://www.w3.org/Graphics/SVG/1.1/DTD/svg11.dtd">
<svg version="1.1" xmlns="http://www.w3.org/2000/svg" xmlns:xlink="http://www.w3.org/1999/xlink" x="0px" y="0px" width="671px"
	 height="644px" viewBox="0 0 671 644" enable-background="new 0 0 671 644" xml:space="preserve">
<g id="Layer_0_xA0_Image_1_" display="none">
	
		<image display="inline" overflow="visible" width="626" height="626" id="Layer_0_xA0_Image" xlink:href="68482316.png"  transform="matrix(1 0 0 1 16 9)">
	</image>
</g>
<g id="Layer_2_xA0_Image_1_" display="none">
	
		<image display="inline" overflow="visible" width="720" height="720" id="Layer_2_xA0_Image" xlink:href="68482311.png"  transform="matrix(1 0 0 1 -31 -38)">
	</image>
</g>
<g id="Shape_3_1_" enable-background="new    ">
	<g id="Shape_3">
		<g>
			<rect x="311.865" y="264.377" fill="#1F2C5A" width="42.135" height="109.623"/>
		</g>
	</g>
</g>
<g id="Shape_3_copy_1_" enable-background="new    ">
	<g id="Shape_3_copy">
		<g>
			
				<rect x="360.278" y="344.803" transform="matrix(0.604 -0.797 0.797 0.604 -167.4766 462.1471)" fill="#1F2C5A" width="42.134" height="109.623"/>
		</g>
	</g>
</g>
<g id="Shape_3_copy_2_1_" enable-background="new    ">
	<g id="Shape_3_copy_2">
		<g>
			
				<rect x="232.843" y="374.547" transform="matrix(0.797 -0.604 0.604 0.797 -180.5604 254.085)" fill="#1F2C5A" width="109.622" height="42.135"/>
		</g>
	</g>
</g>
<g id="Group_1_1_">
	<g id="Layer_15">
		<circle fill="none" stroke="#1F2C5A" stroke-width="21" stroke-miterlimit="10" cx="332.433" cy="139.5" r="122.5"/>
	</g>
	<g id="Shape_1">
		<g>
			<circle fill="#FCB719" cx="333.133" cy="96.691" r="36.309"/>
		</g>
	</g>
	<g id="Layer_1_xA0_Image_5_">
		
			<image overflow="visible" width="111" height="59" id="Layer_1_xA0_Image_4_" xlink:href="68482310.png"  transform="matrix(1 0 0 1 278 144)">
		</image>
	</g>
</g>
<g id="Group_1_copy_1_">
	<g id="Layer_15_copy">
		<circle fill="none" stroke="#1F2C5A" stroke-width="21" stroke-miterlimit="10" cx="532" cy="504" r="122.5"/>
	</g>
	<g id="Shape_1_1_">
		<g>
			<circle fill="#FCB719" cx="532.133" cy="461.691" r="36.309"/>
		</g>
	</g>
	<g id="Layer_1_xA0_Image_3_">
		
			<image overflow="visible" width="111" height="59" id="Layer_1_xA0_Image_2_" xlink:href="6848231F.png"  transform="matrix(1 0 0 1 477 509)">
		</image>
	</g>
</g>
<g id="Group_1_copy_2_1_">
	<g id="Layer_15_copy_2">
		<circle fill="none" stroke="#1F2C5A" stroke-width="21" stroke-miterlimit="10" cx="136.5" cy="504" r="122.5"/>
	</g>
	<g id="Shape_1_2_">
		<g>
			<circle fill="#FCB719" cx="136.133" cy="461.691" r="36.309"/>
		</g>
	</g>
	<g id="Layer_1_xA0_Image_1_">
		
			<image overflow="visible" width="111" height="59" id="Layer_1_xA0_Image" xlink:href="6848231E.png"  transform="matrix(1 0 0 1 81 509)">
		</image>
	</g>
	<path fill="#FCB719" d="M81,568h110.167c0,0,0-17.832,0-21.499S180,509,156,509s-26.333,0-40.167,0S81,526.834,81,548.001
		S81,568,81,568z"/>
	<path fill="#FCB719" d="M477.416,568h110.167c0,0,0-17.832,0-21.499S576.416,509,552.416,509s-26.332,0-40.166,0
		s-34.834,17.834-34.834,39.001S477.416,568,477.416,568z"/>
	<path fill="#FCB719" d="M278.049,202.994h110.167c0,0,0-17.832,0-21.499s-11.167-37.501-35.167-37.501s-26.332,0-40.166,0
		s-34.834,17.834-34.834,39.001S278.049,202.994,278.049,202.994z"/>
</g>
</svg>
